<?xml version="1.0" encoding="utf-8"?>
<svg version="1.1" xmlns:xlink="http://www.w3.org/1999/xlink" width="255px" height="230px" xmlns="http://www.w3.org/2000/svg">
  <g transform="matrix(1 0 0 1 -348 -2346 )">
    <path d="M 348 2346  L 603 2346  L 603 2576  L 348 2576  L 348 2346  " fill-rule="nonzero" fill="#cccccc" stroke="none" />
    <path d="M 364 2362  L 587 2362  L 587 2560  L 364 2560  L 364 2362  " fill-rule="nonzero" fill="#ffffff" stroke="none" />
    <path d="M 497.85 2415  C 488.19 2415  480.6 2407.41  480.6 2397.75  C 480.6 2388.09  488.19 2380.5  497.85 2380.5  C 507.51 2380.5  515.1 2388.09  515.1 2397.75  C 515.1 2407.41  507.51 2415  497.85 2415  " fill-rule="nonzero" fill="#cccccc" stroke="none" />
    <path d="M 370 2554  L 370 2451.7  L 422.75 2405.2  L 496.6 2453.34117647059  L 538.8 2433.1  L 581 2453.34117647059  L 581 2554  L 370 2554  " fill-rule="nonzero" fill="#169bd5" stroke="none" />
  </g>
</svg>