<?xml version="1.0" encoding="utf-8"?>
<svg version="1.1" xmlns:xlink="http://www.w3.org/1999/xlink" width="187px" height="90px" xmlns="http://www.w3.org/2000/svg">
  <g transform="matrix(1 0 0 1 -31 -20 )">
    <path d="M 31 20  L 218 20  L 218 110  L 31 110  L 31 20  " fill-rule="nonzero" fill="#cccccc" stroke="none" />
    <path d="M 37 26  L 212 26  L 212 104  L 37 104  L 37 26  " fill-rule="nonzero" fill="#ffffff" stroke="none" />
    <path d="M 134.99 47  C 131.21 47  128.24 44.03  128.24 40.25  C 128.24 36.47  131.21 33.5  134.99 33.5  C 138.77 33.5  141.74 36.47  141.74 40.25  C 141.74 44.03  138.77 47  134.99 47  " fill-rule="nonzero" fill="#cccccc" stroke="none" />
    <path d="M 40 102  L 40 61.85  L 82.5 43.6  L 142 80.9197860962567  L 176 54.55  L 210 80.9197860962567  L 210 102  L 40 102  " fill-rule="nonzero" fill="#169bd5" stroke="none" />
  </g>
</svg>